HIERARCHY
ROOT Joint1
{
	OFFSET 0.000000 0.000000 0.000000
	CHANNELS 6 Xposition Yposition Zposition Xrotation Yrotation Zrotation
	JOINT Joint2
	{
		OFFSET -0.000000 0.000000 1.456275
		CHANNELS 6 Xposition Yposition Zposition Xrotation Yrotation Zrotation
		JOINT Joint3
		{
			OFFSET -0.000000 0.000002 1.471446
			CHANNELS 6 Xposition Yposition Zposition Xrotation Yrotation Zrotation
			JOINT Joint4
			{
				OFFSET 0.625745 0.000000 0.917755
				CHANNELS 6 Xposition Yposition Zposition Xrotation Yrotation Zrotation
				JOINT Joint5
				{
					OFFSET -0.629534 0.000001 0.940221
					CHANNELS 6 Xposition Yposition Zposition Xrotation Yrotation Zrotation
					JOINT Joint6
					{
						OFFSET -0.000001 0.113772 1.960660
						CHANNELS 6 Xposition Yposition Zposition Xrotation Yrotation Zrotation
						JOINT Joint7
						{
							OFFSET -0.669733 -0.113771 0.388340
							CHANNELS 6 Xposition Yposition Zposition Xrotation Yrotation Zrotation
							End Site
							{
								OFFSET 0.005509 0.005509 0.438980
							}
						}
					}
				}
			}
		}
	}
}
MOTION
Frames: 19
Frame Time: 0.041667
0.000000 0.000000 0.000000 -0.000000 1.019410 -98.943541 -0.000000 -0.000000 1.456275 0.000001 -35.180249 0.000000 -0.000001 0.000002 1.471446 -0.000004 -1.133455 73.620574 0.625745 0.000000 0.917754 0.000000 114.677264 -0.000003 -0.629534 0.000001 0.940221 -0.000000 1.709736 -31.674388 -0.000001 0.113772 1.960660 -88.303875 117.150407 0.000009 -0.669733 -0.113771 0.388340 0.276267 2.282955 29.784341 
0.000000 0.000000 0.000000 -0.000000 1.019410 -98.874973 -0.000000 0.000000 1.456275 0.000000 -35.187045 -0.000000 -0.000000 0.000002 1.471446 -0.000003 -1.133455 73.569525 0.625745 0.000001 0.917755 0.000009 114.691362 -0.000000 -0.629533 0.000001 0.940221 -0.000000 1.709736 -31.652449 -0.000001 0.113772 1.960660 -88.303889 117.131570 0.000011 -0.669733 -0.113771 0.388339 0.276604 2.284201 29.857182 
0.000000 0.000000 0.000000 -0.000000 1.019410 -98.759187 -0.000000 0.000000 1.456275 0.000000 -35.198512 0.000001 -0.000000 0.000002 1.471446 -0.000004 -1.133453 73.483335 0.625745 0.000000 0.917755 0.000002 114.715158 -0.000004 -0.629534 0.000001 0.940221 -0.000002 1.709735 -31.615392 -0.000001 0.113772 1.960660 -88.303889 117.099768 -0.000006 -0.669733 -0.113771 0.388340 0.277178 2.286312 29.980204 
0.000000 0.000000 0.000000 -0.000000 1.019410 -98.594969 -0.000000 0.000000 1.456275 0.000000 -35.214789 -0.000000 -0.000000 0.000002 1.471446 -0.000004 -1.133455 73.361081 0.625745 0.000001 0.917755 0.000001 114.748927 -0.000005 -0.629534 0.000001 0.940221 0.000001 1.709736 -31.562833 -0.000001 0.113772 1.960661 -88.303868 117.054662 -0.000006 -0.669733 -0.113770 0.388341 0.277975 2.289303 30.154677 
0.000000 0.000000 0.000000 -0.000000 1.019410 -98.381068 -0.000000 0.000000 1.456275 -0.000000 -35.235979 -0.000001 -0.000000 0.000002 1.471446 -0.000004 -1.133455 73.201849 0.625745 0.000001 0.917755 -0.000002 114.792913 -0.000004 -0.629534 0.000001 0.940221 -0.000000 1.709735 -31.494381 -0.000001 0.113772 1.960661 -88.303875 116.995895 -0.000002 -0.669733 -0.113771 0.388340 0.278997 2.293203 30.381928 
0.000000 0.000000 0.000000 -0.000000 1.019410 -98.116282 -0.000000 -0.000000 1.456275 0.000000 -35.262218 0.000001 -0.000000 0.000002 1.471446 -0.000003 -1.133455 73.004730 0.625745 0.000000 0.917755 0.000001 114.847350 -0.000007 -0.629534 0.000001 0.940221 -0.000001 1.709736 -31.409643 -0.000001 0.113772 1.960661 -88.303875 116.923153 0.000001 -0.669733 -0.113771 0.388340 0.280250 2.298040 30.663257 
0.000000 0.000000 0.000000 -0.000000 1.019410 -97.799361 -0.000000 0.000000 1.456275 -0.000000 -35.293613 -0.000000 -0.000001 0.000002 1.471446 -0.000003 -1.133460 72.768808 0.625745 0.000000 0.917755 -0.000004 114.912496 -0.000000 -0.629534 0.000001 0.940221 -0.000003 1.709736 -31.308221 -0.000001 0.113772 1.960660 -88.303882 116.836109 0.000012 -0.669733 -0.113771 0.388341 0.281711 2.303833 30.999964 
0.000000 0.000000 0.000000 -0.000000 1.019410 -97.429097 -0.000000 -0.000000 1.456275 0.000000 -35.330298 -0.000001 -0.000000 0.000002 1.471446 -0.000004 -1.133454 72.493169 0.625745 0.000000 0.917755 0.000007 114.988639 -0.000002 -0.629533 0.000001 0.940221 0.000002 1.709737 -31.189724 -0.000001 0.113772 1.960660 -88.303882 116.734381 0.000006 -0.669733 -0.113771 0.388341 0.283384 2.310616 31.393356 
0.000000 0.000000 0.000000 -0.000000 1.019410 -97.004245 -0.000000 0.000000 1.456275 -0.000000 -35.372399 -0.000000 -0.000000 0.000002 1.471446 -0.000003 -1.133455 72.176897 0.625745 0.000000 0.917755 0.000002 115.075983 -0.000002 -0.629534 0.000001 0.940221 0.000001 1.709736 -31.053756 -0.000001 0.113772 1.960660 -88.303875 116.617694 0.000001 -0.669733 -0.113771 0.388340 0.285242 2.318410 31.844736 
0.000000 0.000000 0.000000 -0.000000 1.019410 -96.523591 -0.000000 0.000000 1.456275 0.000001 -35.420029 0.000000 -0.000000 0.000002 1.471446 -0.000003 -1.133460 71.819077 0.625745 0.000000 0.917755 0.000002 115.174816 -0.000002 -0.629534 0.000001 0.940221 0.000000 1.709735 -30.899933 -0.000001 0.113772 1.960661 -88.303875 116.485652 0.000001 -0.669733 -0.113771 0.388341 0.287262 2.327246 32.355419 
0.000000 0.000000 0.000000 -0.000000 1.019410 -95.985892 -0.000000 -0.000000 1.456275 -0.000000 -35.473298 0.000001 -0.000000 0.000002 1.471446 -0.000003 -1.133457 71.418801 0.625745 0.000000 0.917755 -0.000002 115.285370 -0.000000 -0.629534 0.000001 0.940221 -0.000002 1.709735 -30.727857 -0.000001 0.113772 1.960661 -88.303868 116.337956 0.000010 -0.669733 -0.113771 0.388341 0.289437 2.337151 32.926703 
0.000000 0.000000 0.000000 -0.000000 1.019410 -95.389937 -0.000000 0.000000 1.456275 0.000000 -35.532352 -0.000000 -0.000000 0.000002 1.471445 -0.000004 -1.133453 70.975159 0.625745 0.000000 0.917755 0.000001 115.407903 -0.000007 -0.629534 0.000001 0.940221 0.000000 1.709735 -30.537134 -0.000001 0.113772 1.960660 -88.303868 116.174264 -0.000007 -0.669733 -0.113771 0.388340 0.291726 2.348154 33.559889 
0.000000 0.000000 0.000000 -0.000000 1.019410 -94.734492 -0.000000 -0.000000 1.456275 -0.000000 -35.597286 0.000000 -0.000000 0.000002 1.471445 -0.000003 -1.133457 70.487224 0.625745 0.000000 0.917755 0.000002 115.542663 -0.000002 -0.629533 0.000001 0.940221 0.000002 1.709736 -30.327372 -0.000001 0.113772 1.960661 -88.303882 115.994207 0.000006 -0.669733 -0.113771 0.388339 0.294108 2.360285 34.256291 
0.000000 0.000000 0.000000 -0.000000 1.019410 -94.018319 -0.000000 0.000000 1.456275 0.000000 -35.668245 0.000000 -0.000000 0.000002 1.471445 -0.000004 -1.133453 69.954087 0.625744 0.000000 0.917755 -0.000002 115.689908 -0.000001 -0.629534 0.000001 0.940221 -0.000001 1.709737 -30.098175 -0.000001 0.113772 1.960661 -88.303875 115.797484 0.000001 -0.669733 -0.113771 0.388340 0.296537 2.373569 35.017212 
0.000000 0.000000 0.000000 -0.000000 1.019410 -93.243413 -0.000000 0.000000 1.456275 -0.000000 -35.745020 0.000000 -0.000000 0.000002 1.471446 -0.000003 -1.133452 69.377223 0.625745 0.000000 0.917755 0.000004 115.849229 -0.000006 -0.629534 0.000001 0.940221 -0.000000 1.709737 -29.850184 -0.000001 0.113772 1.960660 -88.303875 115.584614 0.000004 -0.669733 -0.113771 0.388339 0.298972 2.387980 35.840550 
0.000000 0.000000 0.000000 -0.000000 1.019410 -92.424583 -0.000000 0.000000 1.456275 -0.000000 -35.826159 0.000000 -0.000000 0.000002 1.471446 -0.000003 -1.133458 68.767663 0.625745 0.000000 0.917756 0.000005 116.017593 -0.000000 -0.629534 0.000001 0.940221 0.000003 1.709736 -29.588134 -0.000001 0.113772 1.960660 -88.303889 115.359696 -0.000006 -0.669733 -0.113771 0.388339 0.301316 2.403245 36.710573 
0.000000 0.000000 0.000000 -0.000000 1.019410 -91.579853 -0.000000 0.000000 1.456275 0.000000 -35.909853 0.000000 -0.000000 0.000002 1.471446 -0.000003 -1.133450 68.138828 0.625745 0.000000 0.917755 0.000002 116.191285 -0.000002 -0.629534 0.000001 0.940221 -0.000002 1.709734 -29.317798 -0.000001 0.113772 1.960661 -88.303868 115.127661 0.000004 -0.669733 -0.113770 0.388340 0.303486 2.419025 37.608114 
0.000000 0.000000 0.000000 -0.000000 1.019410 -90.727254 -0.000000 0.000000 1.456275 -0.000000 -35.994329 -0.000000 -0.000000 0.000002 1.471446 -0.000003 -1.133457 67.504119 0.625745 0.000000 0.917755 -0.000001 116.366575 0.000001 -0.629534 0.000001 0.940221 -0.000001 1.709735 -29.044939 -0.000001 0.113772 1.960660 -88.303882 114.893453 0.000002 -0.669733 -0.113771 0.388340 0.305428 2.434987 38.514033 
0.000000 0.000000 0.000000 -0.000000 1.019410 -89.884791 -0.000000 0.000000 1.456275 0.000000 -36.077797 -0.000000 -0.000000 0.000002 1.471446 -0.000003 -1.133457 66.876971 0.625745 0.000000 0.917755 -0.000013 116.539775 -0.000002 -0.629534 0.000001 0.940221 0.000001 1.709734 -28.775334 -0.000001 0.113772 1.960660 -88.303875 114.662033 0.000001 -0.669733 -0.113771 0.388340 0.307105 2.450786 39.409187 
